<?xml version="1.0" encoding="UTF-8" standalone="no"?>
<!-- Created with Inkscape (http://www.inkscape.org/) -->

<svg
   xmlns:dc="http://purl.org/dc/elements/1.1/"
   xmlns:cc="http://creativecommons.org/ns#"
   xmlns:rdf="http://www.w3.org/1999/02/22-rdf-syntax-ns#"
   xmlns:svg="http://www.w3.org/2000/svg"
   xmlns="http://www.w3.org/2000/svg"
   xmlns:xlink="http://www.w3.org/1999/xlink"
   xmlns:sodipodi="http://sodipodi.sourceforge.net/DTD/sodipodi-0.dtd"
   xmlns:inkscape="http://www.inkscape.org/namespaces/inkscape"
   width="200"
   height="200"
   id="svg2"
   version="1.1"
   inkscape:version="0.48.5 r10040"
   sodipodi:docname="4123_2016 Logo_3a_nobg_animatedstatus.svg">
  <sodipodi:namedview
     id="base"
     pagecolor="#ffffff"
     bordercolor="#666666"
     borderopacity="1.0"
     inkscape:pageopacity="0.0"
     inkscape:pageshadow="2"
     inkscape:zoom="2"
     inkscape:cx="203.33051"
     inkscape:cy="182.87323"
     inkscape:document-units="px"
     inkscape:current-layer="g3029"
     showgrid="false"
     inkscape:window-width="1920"
     inkscape:window-height="1018"
     inkscape:window-x="-4"
     inkscape:window-y="33"
     inkscape:window-maximized="1" />
  <defs
     id="defs4">
    <linearGradient
       inkscape:collect="always"
       xlink:href="#linearGradient3783"
       id="linearGradient3789"
       x1="171.35501"
       y1="225.44864"
       x2="455.6098"
       y2="439.82019"
       gradientUnits="userSpaceOnUse" />
    <linearGradient
       id="linearGradient3783">
      <stop
         style="stop-color:#000000;stop-opacity:0;"
         offset="0"
         id="stop3785" />
      <stop
         style="stop-color:#000000;stop-opacity:0.01176471;"
         offset="1"
         id="stop3787" />
    </linearGradient>
    <linearGradient
       inkscape:collect="always"
       xlink:href="#linearGradient3783"
       id="linearGradient4394"
       x1="273.75134"
       y1="105.26626"
       x2="529.31995"
       y2="105.26626"
       gradientUnits="userSpaceOnUse"
       gradientTransform="matrix(4.0067523,0,0,4.7591938,-1096.8538,11.017436)" />
    <clipPath
       clipPathUnits="userSpaceOnUse"
       id="clipPath4003">
      <rect
         style="fill:#ffffff;fill-opacity:1;fill-rule:nonzero;stroke:none"
         id="rect4005"
         width="429.92093"
         height="506.28845"
         x="3430.8821"
         y="-1196.3153" />
    </clipPath>
  </defs>
  <metadata
     id="metadata7">
    <rdf:RDF>
      <cc:Work
         rdf:about="">
        <dc:format>image/svg+xml</dc:format>
        <dc:type
           rdf:resource="http://purl.org/dc/dcmitype/StillImage" />
        <dc:title />
      </cc:Work>
    </rdf:RDF>
  </metadata>
  <g
     inkscape:groupmode="layer"
     id="layer5"
     inkscape:label="TR"
     style="display:inline"
     transform="translate(0,-824.00002)">
    <g
       id="g3029"
       transform="matrix(0.26402316,0,0,0.26402316,-5.8430827e-4,743.13887)">
      <g
         id="g4551"
         style="font-size:747.86785889px;font-style:normal;font-weight:normal;line-height:125%;letter-spacing:0px;word-spacing:0px;fill:#000000;fill-opacity:1;stroke:none;font-family:Sans"
         transform="translate(58.542955,-28.362183)" />
      <g
         transform="translate(32.828669,-118.72061)"
         id="g4555"
         style="font-size:747.86785889px;font-style:normal;font-weight:normal;line-height:50%;letter-spacing:0px;word-spacing:0px;fill:#000000;fill-opacity:1;stroke:none;font-family:Sans">
        <g
           id="g4557"
           style="font-size:724.69769287px;line-height:125%;fill:#000000;fill-opacity:1;font-family:Sans" />
      </g>
      <g
         transform="matrix(1.0040612,0,0,1.0040612,-60.543219,105.84516)"
         id="g4084">
        <g
           style="fill:#3c6599;fill-opacity:1;stroke:none"
           id="g4086" />
      </g>
      <g
         transform="matrix(1.0040612,0,0,1.0040612,-60.543219,105.84516)"
         style="fill:#000000;fill-opacity:0.2"
         id="g4200">
        <g
           id="g4202"
           style="fill:#000000;fill-opacity:0.2;stroke:none" />
      </g>
      <g
         id="g4256"
         transform="matrix(1.0040612,0,0,1.0040612,-98.525392,192.0185)">
        <g
           id="g4258"
           style="fill:#3c6599;fill-opacity:1;stroke:none" />
        <path
           style="fill:#3c6599;fill-opacity:1;stroke:none"
           d="m 121.9375,35.87455 c -1.21269,0.01251 -2.41212,0.06691 -3.625,0.125 -1.4597,0.06997 -2.91698,0.144985 -4.375,0.28125 -0.13399,0.01252 -0.27229,0.01817 -0.40625,0.03125 -0.0629,0.0061 -0.12458,0.02498 -0.1875,0.03125 -0.69375,0.06912 -1.40081,0.165801 -2.09375,0.25 -0.67507,0.08216 -1.35716,0.153505 -2.03125,0.25 -0.20945,0.02997 -0.41566,0.06239 -0.625,0.09375 -0.43685,0.06544 -0.87616,0.147273 -1.3125,0.21875 -1.00094,0.164024 -2.00227,0.335357 -3,0.53125 -0.72089,0.141537 -1.43735,0.279281 -2.15625,0.4375 -0.28201,0.06209 -0.56208,0.122844 -0.84375,0.1875 -0.2106,0.04833 -0.41459,0.106478 -0.625,0.15625 -0.882931,0.208819 -1.777048,0.42206 -2.65625,0.65625 -0.8755,0.233132 -1.753683,0.491643 -2.625,0.75 -0.510204,0.151385 -1.022614,0.308696 -1.53125,0.46875 -0.356865,0.112262 -0.706447,0.227215 -1.0625,0.34375 -0.700009,0.22912 -1.397073,0.473087 -2.09375,0.71875 -0.24908,0.08783 -0.501368,0.160047 -0.75,0.25 -0.417931,0.151188 -0.83338,0.311572 -1.25,0.46875 -0.356368,0.134481 -0.707129,0.267381 -1.0625,0.40625 -0.37844,0.147816 -0.747731,0.315953 -1.125,0.46875 -0.720877,0.292026 -1.439872,0.596004 -2.15625,0.90625 -0.384345,0.166382 -0.773264,0.328365 -1.15625,0.5 -0.437348,0.19613 -0.876988,0.39076 -1.3125,0.59375 -0.629547,0.29323 -1.24946,0.598663 -1.875,0.90625 -0.705306,0.346809 -1.393813,0.6974 -2.09375,1.0625 -0.941816,0.491223 -1.881024,0.975573 -2.8125,1.5 -0.840959,0.473466 -1.668019,0.968142 -2.5,1.46875 -0.361639,0.21757 -0.733878,0.433542 -1.09375,0.65625 -0.649183,0.401809 -1.294264,0.831443 -1.9375,1.25 -0.782308,0.509052 -1.570652,1.028616 -2.34375,1.5625 -0.597644,0.412667 -1.189349,0.82246 -1.78125,1.25 -0.01189,0.0086 -0.01936,0.02265 -0.03125,0.03125 -0.789648,0.570887 -1.56477,1.152569 -2.34375,1.75 -0.686705,0.526661 -1.38445,1.04641 -2.0625,1.59375 -0.311294,0.251215 -0.596832,0.52567 -0.90625,0.78125 -0.466448,0.385325 -0.94416,0.76099 -1.40625,1.15625 -0.0626,0.05356 -0.124976,0.102502 -0.1875,0.15625 -0.695631,0.597774 -1.377126,1.223355 -2.0625,1.84375 -0.799225,0.723383 -1.59029,1.433277 -2.375,2.1875 -0.04273,0.04107 -0.08231,0.08384 -0.125,0.125 -0.683114,0.658684 -1.359619,1.349083 -2.03125,2.03125 -0.314108,0.319059 -0.625969,0.644545 -0.9375,0.96875 -0.525994,0.547397 -1.044012,1.094161 -1.5625,1.65625 -0.100075,0.108467 -0.212709,0.203485 -0.3125,0.3125 -0.466848,0.510078 -0.914458,1.040417 -1.375,1.5625 -0.315183,0.357313 -0.625328,0.699556 -0.9375,1.0625 -0.371277,0.431497 -0.726804,0.87303 -1.09375,1.3125 -0.658356,0.788474 -1.324692,1.59206 -1.96875,2.40625 -0.02721,0.0344 -0.06657,0.0593 -0.09375,0.09375 -0.46451,0.588558 -0.918158,1.17926 -1.375,1.78125 -0.172008,0.226699 -0.329096,0.458894 -0.5,0.6875 -0.557878,0.746022 -1.11034,1.483634 -1.65625,2.25 C 39.37922,81.408661 38.6934,82.430755 38,83.46855 l 0,4.5e-4 4.25,4.2493 7.375,2.71875 79.65625,0 29.5,39.90625 -32.65625,43.9375 -80.75,0 -7.375,2.9375 c 0.691669,1.0352 1.381056,2.03081 2.09375,3.03125 0.460328,0.64619 0.937395,1.30578 1.40625,1.9375 0.54749,0.73744 1.097421,1.46975 1.65625,2.1875 0.594876,0.76405 1.205133,1.5082 1.8125,2.25 0.596542,0.72858 1.204261,1.44908 1.8125,2.15625 0.633206,0.73602 1.260757,1.47463 1.90625,2.1875 0.42688,0.47148 0.849139,0.94488 1.28125,1.40625 0.484418,0.51718 0.97791,1.02675 1.46875,1.53125 0.03072,0.0316 0.063,0.0622 0.09375,0.0937 0.323475,0.33169 0.642552,0.6738 0.96875,1 0.365977,0.36598 0.755657,0.70342 1.125,1.0625 0.110494,0.10743 0.201709,0.23693 0.3125,0.34375 0.06403,0.0617 0.123367,0.12597 0.1875,0.1875 0.196046,0.18808 0.396786,0.37635 0.59375,0.5625 0.02706,0.0256 0.06667,0.037 0.09375,0.0625 0.01017,0.0107 0.02108,0.0206 0.03125,0.0312 0.06473,0.061 0.122672,0.12671 0.1875,0.1875 0.581302,0.60826 1.159721,1.22222 1.75,1.8125 46.83543,46.83544 121.47973,37.12708 156.1875,-19.53125 l 1.40625,-1.96875 -0.5,-87.0625 c -0.13034,-0.147326 -0.77541,-1.07053 -0.90625,-1.21875 -4.58575,-7.485839 -9.86308,-14.144232 -15.6875,-19.96865 l -2.03125,-2 c -0.0164,-0.01548 -0.0461,-0.01578 -0.0625,-0.03125 -0.0711,-0.07542 -0.14751,-0.143596 -0.21875,-0.21875 -0.0862,-0.08094 -0.16364,-0.169416 -0.25,-0.25 -0.10724,-0.112358 -0.20487,-0.231983 -0.3125,-0.34375 -0.45655,-0.474209 -0.91152,-0.942692 -1.375,-1.40625 -0.30088,-0.300879 -0.6025,-0.609867 -0.90625,-0.90625 -0.38112,-0.371911 -0.77069,-0.728928 -1.15625,-1.09375 -0.39817,-0.376846 -0.78469,-0.755729 -1.1875,-1.125 -0.0543,-0.04981 -0.10183,-0.106582 -0.15625,-0.15625 -0.69779,-0.636932 -1.41375,-1.260789 -2.125,-1.875 -0.0391,-0.03377 -0.0859,-0.06005 -0.125,-0.09375 -0.20763,-0.178721 -0.41625,-0.354465 -0.625,-0.53125 -0.04,-0.03384 -0.085,-0.05998 -0.125,-0.09375 -0.67397,-0.569001 -1.34596,-1.138682 -2.03125,-1.6875 -0.50758,-0.406542 -1.01765,-0.792058 -1.53125,-1.1875 -0.22326,-0.171889 -0.43188,-0.361462 -0.65625,-0.53125 -0.83164,-0.629325 -1.68473,-1.243346 -2.53125,-1.84375 -0.66032,-0.468416 -1.331,-0.924235 -2,-1.375 -0.19822,-0.133517 -0.39479,-0.274285 -0.59375,-0.40625 -0.57304,-0.380192 -1.13967,-0.757703 -1.71875,-1.125 -0.3007,-0.190745 -0.60396,-0.375239 -0.90625,-0.5625 -0.48044,-0.297598 -0.95315,-0.586213 -1.4375,-0.875 -0.12496,-0.07453 -0.24978,-0.144803 -0.375,-0.21875 -0.66101,-0.390216 -1.33204,-0.751171 -2,-1.125 -0.52494,-0.29387 -1.03342,-0.591274 -1.5625,-0.875 -0.27056,-0.145099 -0.54089,-0.295058 -0.8125,-0.4375 -0.64061,-0.335879 -1.2912,-0.678923 -1.9375,-1 -0.16746,-0.08321 -0.33217,-0.167789 -0.5,-0.25 -0.75122,-0.367976 -1.52282,-0.714496 -2.28125,-1.0625 -0.0634,-0.0291 -0.124,-0.06479 -0.1875,-0.09375 -0.87361,-0.398628 -1.74242,-0.784163 -2.625,-1.15625 -0.77815,-0.328032 -1.55905,-0.630161 -2.34375,-0.9375 -0.16504,-0.06464 -0.33468,-0.123775 -0.5,-0.1875 -0.95238,-0.367118 -1.91378,-0.725869 -2.875,-1.0625 -0.92806,-0.325019 -1.8456,-0.640993 -2.78125,-0.9375 -0.041,-0.013 -0.084,-0.01831 -0.125,-0.03125 -0.4483,-0.14152 -0.89382,-0.271287 -1.34375,-0.40625 -0.51786,-0.155237 -1.04259,-0.322214 -1.5625,-0.46875 -0.34345,-0.09681 -0.68695,-0.188245 -1.03125,-0.28125 -0.63543,-0.171691 -1.26805,-0.341282 -1.90625,-0.5 -0.22751,-0.05657 -0.45965,-0.101331 -0.6875,-0.15625 -0.76385,-0.184134 -1.51384,-0.365702 -2.28125,-0.53125 -0.10414,-0.02249 -0.20829,-0.04036 -0.3125,-0.0625 -0.88229,-0.187309 -1.76979,-0.368553 -2.65625,-0.53125 -0.87031,-0.159816 -1.75115,-0.301477 -2.625,-0.4375 -0.12613,-0.01964 -0.2488,-0.04336 -0.375,-0.0625 -0.74976,-0.113726 -1.49801,-0.216324 -2.25,-0.3125 -0.24955,-0.03188 -0.50023,-0.06381 -0.75,-0.09375 -0.13545,-0.01626 -0.27073,-0.01556 -0.40625,-0.03125 -0.81147,-0.09385 -1.62399,-0.176608 -2.4375,-0.25 -0.0526,-0.0048 -0.10359,-0.02659 -0.15625,-0.03125 -0.51897,-0.04595 -1.04283,-0.08739 -1.5625,-0.125 -0.48536,-0.0351 -0.98287,-0.06593 -1.46875,-0.09375 -0.40572,-0.02322 -0.81271,-0.04437 -1.21875,-0.0625 -0.60691,-0.02716 -1.20502,-0.04672 -1.8125,-0.0625 -1.00748,-0.02616 -2.02275,-0.03649 -3.03125,-0.03125 -0.16581,8.61e-4 -0.33418,-0.0017 -0.5,0 z m 73.59375,31.9692 c 0.55715,0.597058 1.11017,1.199232 1.65625,1.8125 -0.55012,-0.61799 -1.0949,-1.210965 -1.65625,-1.8125 z m 7.4375,8.90625 c 0.51506,0.688898 1.02926,1.388051 1.53125,2.09375 -0.5032,-0.707429 -1.01491,-1.403204 -1.53125,-2.09375 z"
           id="path4206"
           inkscape:connector-curvature="0"
           sodipodi:nodetypes="sccccccscscccccccccccccccscsccscccsccccccccsccccsccccccccccccccscsscccccscscccccscccccccccccccscscccccscccccccccccscccssssccccccccccccccsccccssscccccc"
           transform="matrix(0.99595523,0,0,0.99595523,60.298335,117.67693)" />
        <path
           transform="matrix(0.99595523,0,0,0.99595523,60.298335,117.67693)"
           sodipodi:nodetypes="sccccccscscccccccccccccccscsccscccsccccccccsccccsccccccccccccccscsscccccscscccccscccccccccccccscscccccscccccccccccscccssssccccccccccccccsccccssscccccc"
           inkscape:connector-curvature="0"
           id="path4356"
           d="m 121.9375,35.875 c -1.21269,0.01251 -2.41212,0.06691 -3.625,0.125 -1.4597,0.06997 -2.91698,0.144985 -4.375,0.28125 -0.13399,0.01252 -0.27229,0.01817 -0.40625,0.03125 -0.0629,0.0061 -0.12458,0.02498 -0.1875,0.03125 -0.69375,0.06912 -1.40081,0.165801 -2.09375,0.25 -0.67507,0.08216 -1.35716,0.153505 -2.03125,0.25 -0.20945,0.02997 -0.41566,0.06239 -0.625,0.09375 -0.43685,0.06544 -0.87616,0.147273 -1.3125,0.21875 -1.00094,0.164024 -2.00227,0.335357 -3,0.53125 -0.72089,0.141537 -1.43735,0.279281 -2.15625,0.4375 -0.28201,0.06209 -0.56208,0.122844 -0.84375,0.1875 -0.2106,0.04833 -0.41459,0.106478 -0.625,0.15625 C 99.773319,38.677569 98.879202,38.89081 98,39.125 c -0.8755,0.233132 -1.753683,0.491643 -2.625,0.75 -0.510204,0.151385 -1.022614,0.308696 -1.53125,0.46875 -0.356865,0.112262 -0.706447,0.227215 -1.0625,0.34375 -0.700009,0.22912 -1.397073,0.473087 -2.09375,0.71875 -0.24908,0.08783 -0.501368,0.160047 -0.75,0.25 -0.417931,0.151188 -0.83338,0.311572 -1.25,0.46875 -0.356368,0.134481 -0.707129,0.267381 -1.0625,0.40625 C 87.24656,42.679066 86.877269,42.847203 86.5,43 c -0.720877,0.292026 -1.439872,0.596004 -2.15625,0.90625 -0.384345,0.166382 -0.773264,0.328365 -1.15625,0.5 C 82.750152,44.60238 82.310512,44.79701 81.875,45 81.245453,45.29323 80.62554,45.598663 80,45.90625 c -0.705306,0.346809 -1.393813,0.6974 -2.09375,1.0625 -0.941816,0.491223 -1.881024,0.975573 -2.8125,1.5 -0.840959,0.473466 -1.668019,0.968142 -2.5,1.46875 -0.361639,0.21757 -0.733878,0.433542 -1.09375,0.65625 -0.649183,0.401809 -1.294264,0.831443 -1.9375,1.25 -0.782308,0.509052 -1.570652,1.028616 -2.34375,1.5625 -0.597644,0.412667 -1.189349,0.82246 -1.78125,1.25 -0.01189,0.0086 -0.01936,0.02265 -0.03125,0.03125 -0.789648,0.570887 -1.56477,1.152569 -2.34375,1.75 -0.686705,0.526661 -1.38445,1.04641 -2.0625,1.59375 -0.311294,0.251215 -0.596832,0.52567 -0.90625,0.78125 -0.466448,0.385325 -0.94416,0.76099 -1.40625,1.15625 -0.0626,0.05356 -0.124976,0.102502 -0.1875,0.15625 -0.695631,0.597774 -1.377126,1.223355 -2.0625,1.84375 -0.799225,0.723383 -1.59029,1.433277 -2.375,2.1875 -0.04273,0.04107 -0.08231,0.08384 -0.125,0.125 -0.683114,0.658684 -1.359619,1.349083 -2.03125,2.03125 -0.314108,0.319059 -0.625969,0.644545 -0.9375,0.96875 -0.525994,0.547397 -1.044012,1.094161 -1.5625,1.65625 -0.100075,0.108467 -0.212709,0.203485 -0.3125,0.3125 -0.466848,0.510078 -0.914458,1.040417 -1.375,1.5625 -0.315183,0.357313 -0.625328,0.699556 -0.9375,1.0625 -0.371277,0.431497 -0.726804,0.87303 -1.09375,1.3125 -0.658356,0.788474 -1.324692,1.59206 -1.96875,2.40625 -0.02721,0.0344 -0.06657,0.0593 -0.09375,0.09375 -0.46451,0.588558 -0.918158,1.17926 -1.375,1.78125 -0.172008,0.226699 -0.329096,0.458894 -0.5,0.6875 -0.557878,0.746022 -1.11034,1.483634 -1.65625,2.25 C 39.37922,81.409111 38.6934,82.430955 38,83.46875 l 0,2.5e-4 4.25,4.24975 7.375,2.71875 79.65625,0 29.5,39.90625 -32.65625,43.9375 -80.75,0 -7.375,2.9375 c 0.691669,1.0352 1.381056,2.03081 2.09375,3.03125 0.460328,0.64619 0.937395,1.30578 1.40625,1.9375 0.54749,0.73744 1.097421,1.46975 1.65625,2.1875 0.594876,0.76405 1.205133,1.5082 1.8125,2.25 0.596542,0.72858 1.204261,1.44908 1.8125,2.15625 0.633206,0.73602 1.260757,1.47463 1.90625,2.1875 0.42688,0.47148 0.849139,0.94488 1.28125,1.40625 0.484418,0.51718 0.97791,1.02675 1.46875,1.53125 0.03072,0.0316 0.063,0.0622 0.09375,0.0937 0.323475,0.33169 0.642552,0.6738 0.96875,1 0.365977,0.36598 0.755657,0.70342 1.125,1.0625 0.110494,0.10743 0.201709,0.23693 0.3125,0.34375 0.06403,0.0617 0.123367,0.12597 0.1875,0.1875 0.196046,0.18808 0.396786,0.37635 0.59375,0.5625 0.02706,0.0256 0.06667,0.037 0.09375,0.0625 0.01017,0.0107 0.02108,0.0206 0.03125,0.0312 0.06473,0.061 0.122672,0.12671 0.1875,0.1875 0.581302,0.60826 1.159721,1.22222 1.75,1.8125 46.83543,46.83544 121.47973,37.12708 156.1875,-19.53125 l 1.40625,-1.96875 -0.5,-87.0625 c -0.13034,-0.147326 -0.77541,-1.07053 -0.90625,-1.21875 C 208.383,81.982811 203.10567,75.324418 197.28125,69.5 l -2.03125,-2 c -0.0164,-0.01548 -0.0461,-0.01578 -0.0625,-0.03125 -0.0711,-0.07542 -0.14751,-0.143596 -0.21875,-0.21875 -0.0862,-0.08094 -0.16364,-0.169416 -0.25,-0.25 -0.10724,-0.112358 -0.20487,-0.231983 -0.3125,-0.34375 -0.45655,-0.474209 -0.91152,-0.942692 -1.375,-1.40625 -0.30088,-0.300879 -0.6025,-0.609867 -0.90625,-0.90625 -0.38112,-0.371911 -0.77069,-0.728928 -1.15625,-1.09375 -0.39817,-0.376846 -0.78469,-0.755729 -1.1875,-1.125 -0.0543,-0.04981 -0.10183,-0.106582 -0.15625,-0.15625 -0.69779,-0.636932 -1.41375,-1.260789 -2.125,-1.875 -0.0391,-0.03377 -0.0859,-0.06005 -0.125,-0.09375 -0.20763,-0.178721 -0.41625,-0.354465 -0.625,-0.53125 -0.04,-0.03384 -0.085,-0.05998 -0.125,-0.09375 -0.67397,-0.569001 -1.34596,-1.138682 -2.03125,-1.6875 -0.50758,-0.406542 -1.01765,-0.792058 -1.53125,-1.1875 -0.22326,-0.171889 -0.43188,-0.361462 -0.65625,-0.53125 -0.83164,-0.629325 -1.68473,-1.243346 -2.53125,-1.84375 -0.66032,-0.468416 -1.331,-0.924235 -2,-1.375 -0.19822,-0.133517 -0.39479,-0.274285 -0.59375,-0.40625 -0.57304,-0.380192 -1.13967,-0.757703 -1.71875,-1.125 -0.3007,-0.190745 -0.60396,-0.375239 -0.90625,-0.5625 -0.48044,-0.297598 -0.95315,-0.586213 -1.4375,-0.875 -0.12496,-0.07453 -0.24978,-0.144803 -0.375,-0.21875 -0.66101,-0.390216 -1.33204,-0.751171 -2,-1.125 -0.52494,-0.29387 -1.03342,-0.591274 -1.5625,-0.875 -0.27056,-0.145099 -0.54089,-0.295058 -0.8125,-0.4375 -0.64061,-0.335879 -1.2912,-0.678923 -1.9375,-1 -0.16746,-0.08321 -0.33217,-0.167789 -0.5,-0.25 -0.75122,-0.367976 -1.52282,-0.714496 -2.28125,-1.0625 -0.0634,-0.0291 -0.124,-0.06479 -0.1875,-0.09375 -0.87361,-0.398628 -1.74242,-0.784163 -2.625,-1.15625 -0.77815,-0.328032 -1.55905,-0.630161 -2.34375,-0.9375 -0.16504,-0.06464 -0.33468,-0.123775 -0.5,-0.1875 -0.95238,-0.367118 -1.91378,-0.725869 -2.875,-1.0625 -0.92806,-0.325019 -1.8456,-0.640993 -2.78125,-0.9375 -0.041,-0.013 -0.084,-0.01831 -0.125,-0.03125 -0.4483,-0.14152 -0.89382,-0.271287 -1.34375,-0.40625 -0.51786,-0.155237 -1.04259,-0.322214 -1.5625,-0.46875 -0.34345,-0.09681 -0.68695,-0.188245 -1.03125,-0.28125 -0.63543,-0.171691 -1.26805,-0.341282 -1.90625,-0.5 -0.22751,-0.05657 -0.45965,-0.101331 -0.6875,-0.15625 C 145.0174,38.409616 144.26741,38.228048 143.5,38.0625 143.39586,38.04001 143.29171,38.02214 143.1875,38 c -0.88229,-0.187309 -1.76979,-0.368553 -2.65625,-0.53125 -0.87031,-0.159816 -1.75115,-0.301477 -2.625,-0.4375 -0.12613,-0.01964 -0.2488,-0.04336 -0.375,-0.0625 -0.74976,-0.113726 -1.49801,-0.216324 -2.25,-0.3125 -0.24955,-0.03188 -0.50023,-0.06381 -0.75,-0.09375 -0.13545,-0.01626 -0.27073,-0.01556 -0.40625,-0.03125 -0.81147,-0.09385 -1.62399,-0.176608 -2.4375,-0.25 -0.0526,-0.0048 -0.10359,-0.02659 -0.15625,-0.03125 -0.51897,-0.04595 -1.04283,-0.08739 -1.5625,-0.125 -0.48536,-0.0351 -0.98287,-0.06593 -1.46875,-0.09375 -0.40572,-0.02322 -0.81271,-0.04437 -1.21875,-0.0625 -0.60691,-0.02716 -1.20502,-0.04672 -1.8125,-0.0625 -1.00748,-0.02616 -2.02275,-0.03649 -3.03125,-0.03125 -0.16581,8.61e-4 -0.33418,-0.0017 -0.5,0 z m 73.59375,31.96875 c 0.55715,0.597058 1.11017,1.199232 1.65625,1.8125 -0.55012,-0.61799 -1.0949,-1.210965 -1.65625,-1.8125 z m 7.4375,8.90625 c 0.51506,0.688898 1.02926,1.388051 1.53125,2.09375 -0.5032,-0.707429 -1.01491,-1.403204 -1.53125,-2.09375 z"
           style="fill:#000000;fill-opacity:0.16470588;stroke:none" />
      </g>
      <path
         inkscape:connector-curvature="0"
         id="path3945"
         d="m 543.70723,444.48818 -34.36025,69.46533 -73.02766,-29.27584 -28.7577,28.69292 24.80675,73.38392 -72.31524,30.92746 -0.0646,40.64288 69.43296,34.32787 -29.27584,73.0277 28.69292,28.75767 73.41629,-24.80676 30.92746,72.34761 40.61051,0.0328 34.36028,-69.43297 73.02766,29.27586 28.75768,-28.69293 -24.80672,-73.41633 72.31519,-30.89509 0.0646,-40.64287 -69.46538,-34.36025 29.27585,-73.0277 -28.69292,-28.72529 -73.38392,24.80675 -30.92746,-72.3476 -40.6105,-0.0646 z"
         style="fill:#3c6599;fill-opacity:1;stroke:none;display:inline">
        <!----
	   width="397.52301"
       height="397.52399"
       x="359.98901"
       y="444.48804"
	   ---->
        <animateTransform
           id="animateTransform16"
           repeatCount="indefinite"
           dur="5s"
           to="360 560.837005 643.250035"
           from="0 560.837005 643.250035"
           type="rotate"
           attributeName="transform" />
      </path>
      <rect
         y="558.72375"
         x="417.19299"
         height="189.50462"
         width="217.78889"
         id="rect3043"
         style="fill:#ffffff;fill-opacity:1;fill-rule:nonzero;stroke:none" />
      <g
         transform="matrix(1.0040612,0,0,1.0040612,-98.525392,220.49587)"
         id="g9314"
         style="display:inline">
        <g
           id="g9226">
          <path
             sodipodi:nodetypes="ccccccccccccccsccscscccccccsccc"
             inkscape:connector-curvature="0"
             id="path8623"
             d="m 417.21875,262.90625 -17.5,511.875 14.03125,25.46875 118.65625,0 0,-194.65625 87.28125,0 48.02275,-30.35648 46.0085,219.35648 5.65625,5.65625 117.59375,0 0,-5.125 L 721.9375,577.84375 c 31.89112,-14.36311 55.6723,-33.65181 71.375,-57.875 15.70187,-24.22263 23.56206,-54.47613 23.5625,-90.75 -3.9e-4,-45.68532 -13.59542,-82.12667 -40.8125,-109.34375 -0.99157,-0.99157 -2.00355,-1.97044 -3.03125,-2.9375 l -0.125,-0.125 c -0.82395,-0.86857 -1.64947,-1.74322 -2.5,-2.59375 -3.23971,-3.23972 -6.68716,-6.33446 -10.3125,-9.3125 -34.08288,-27.99584 -82.53485,-41.99946 -145.34375,-42 z m 0,0 c -30.70383,624.65735 51.0116,516.53697 0,0 z m 115.1875,94.375 88,0 c 27.41705,4.1e-4 48.26366,6.21355 62.5,18.65625 12.04232,2.39188 18.66866,48.40719 18.75,56.40625 -3.3e-4,24.58844 -7.53163,43.87714 -22.625,57.875 -15.09398,13.99847 -36.39706,21.00029 -63.90625,21 l -82.71875,0 z"
             style="fill:#cccc99;fill-opacity:1;display:inline" />
          <g
             id="g8094">
            <g
               id="g8096"
               style="fill:#3c6599;fill-opacity:1">
              <path
                 inkscape:connector-curvature="0"
                 id="path8104"
                 d="m 790.06017,345.12008 0.0603,-0.0613 5.65685,5.65685 -0.0603,0.0613 z" />
              <path
                 inkscape:connector-curvature="0"
                 id="path8108"
                 d="m 810.38624,302.48133 -33.46991,-33.46991 5.65685,5.65685 33.46991,33.46991 z" />
              <path
                 sodipodi:nodetypes="cc"
                 inkscape:connector-curvature="0"
                 id="path8116"
                 d="m 614.75,272.40625 c -344.41541,351.89861 -172.20771,175.9493 0,0 z" />
              <path
                 inkscape:connector-curvature="0"
                 id="path8128"
                 d="m 734.27953,561.0643 0.0613,0.0603 5.65685,5.65685 -0.0613,-0.0603 z" />
              <path
                 inkscape:connector-curvature="0"
                 id="path8136"
                 d="m 790.12051,505.34492 -0.0603,-0.0613 5.65685,5.65685 0.0603,0.0613 z" />
            </g>
          </g>
          <g
             id="g8389">
            <g
               style="font-size:724.69769287px;font-style:normal;font-weight:bold;line-height:125%;letter-spacing:0px;word-spacing:0px;fill:#3c6599;fill-opacity:1;stroke:none;font-family:Sans"
               id="g8391">
              <path
                 sodipodi:nodetypes="ccccccccccccc"
                 inkscape:connector-curvature="0"
                 id="path8393"
                 d="m 259.39608,175.15625 0,87.75 5.15827,5.65625 61.6019,0 0,526.03125 5.65625,5.65625 104.75,0 -5.65625,-5.65625 49.125,-526.03125 110.09375,0 0,-87.75 -5.65625,-5.65625 z" />
            </g>
          </g>
        </g>
        <g
           style="fill:#000000;fill-opacity:1;display:inline"
           id="g9242">
          <path
             style="font-size:724.69769287px;font-style:normal;font-weight:bold;line-height:125%;letter-spacing:0px;word-spacing:0px;fill:#000000;fill-opacity:0.16470588;stroke:none;font-family:Sans"
             d="m 244.95473,175.15625 -1e-4,87.75036 -67.04877,5.65596 148.24995,-10e-5 4.4e-4,526.03128 5.65625,5.65625 200.59375,0 0,-194.65625 87.28125,0 48.03125,-30.34375 46,219.34375 5.65625,5.65625 117.59375,0 0,-5.125 L 721.9375,577.84375 c 7.02395,-3.16344 13.63753,-6.57734 19.875,-10.21875 34.5623,-21.98424 35.84054,-25.03664 55.28125,-53.875 7.38091,-12.94421 12.68703,-27.47728 15.9375,-43.59375 6.65701,-36.35158 6.22649,-39.85997 3.3125,-56.34375 -1.81016,-25.16181 -8.171,-47.2529 -19.0625,-66.25 -29.26505,-36.37466 -0.377,-0.2078 -28.21875,-34.625 -2.85147,-2.7702 -5.83151,-5.45416 -8.96875,-8.03125 -17.17941,-14.11125 -38.0208,-24.65624 -62.5,-31.65625 -42.47046,-7.66015 -40.16336,-7.74224 -79.46875,-10.3125 l -28,-0.0312 0,-82.09375 -5.65625,-5.65625 z m 287.45152,182.125 88,0 c 27.41705,4.1e-4 48.26366,6.21355 62.5,18.65625 37.81266,5.00626 43.06956,54.63191 43.1509,62.63097 -3.3e-4,24.58844 -31.93253,37.65242 -47.0259,51.65028 -15.09398,13.99847 -36.39706,21.00029 -63.90625,21 l -82.71875,0 z"
             id="path9270"
             inkscape:connector-curvature="0"
             sodipodi:nodetypes="ccccccccccccccccccccccccccccccccsccc" />
        </g>
      </g>
      <g
         transform="matrix(1.0040612,0,0,1.0040612,-98.525392,192.0185)"
         id="text2994"
         style="font-size:747.86785889px;font-style:normal;font-weight:normal;line-height:125%;letter-spacing:0px;word-spacing:0px;fill:#cccc99;fill-opacity:1;stroke:none;font-family:Sans">
        <path
           sodipodi:nodetypes="ccccccsccccccccccsccccc"
           inkscape:connector-curvature="0"
           id="path3779"
           style="font-variant:normal;font-weight:bold;font-stretch:normal;fill:#cccc99;fill-opacity:1;font-family:Roboto;-inkscape-font-specification:Roboto"
           d="m 614.03075,628.31381 -87.2756,0 0,194.63537 -95.84715,0 -13.7038,-26.712 0,-504.97515 197.55689,0 c 62.8089,5.4e-4 111.25472,13.9987 145.3376,41.99454 34.08209,27.99682 51.12334,67.55684 51.12378,118.6802 -4.4e-4,36.27387 -7.85159,66.52208 -23.55346,90.74471 -15.7027,24.22319 -39.49958,43.51631 -71.3907,57.87942 l 115.0285,217.27606 0,5.11238 -117.58469,0 z m -87.2756,-88.73628 88.37111,0 c 27.50919,2.9e-4 48.81074,-6.99879 63.90472,-20.99726 15.09337,-13.99786 22.6402,-33.29098 22.64053,-57.87942 -3.3e-4,-25.07461 -7.12113,-44.79376 -21.36243,-59.15752 -14.24192,-14.36291 -36.09123,-21.54458 -65.54799,-21.54502 l -88.00594,0 z" />
      </g>
      <g
         transform="matrix(1.0040612,0,0,1.0040612,-124.34411,101.29311)"
         id="text2982"
         style="font-size:747.86785889px;font-style:normal;font-weight:normal;line-height:50%;letter-spacing:0px;word-spacing:0px;fill:#3c6599;fill-opacity:1;stroke:none;font-family:Sans">
        <g
           id="text3769"
           style="font-size:724.69769287px;line-height:125%;fill:#3c6599;fill-opacity:1;font-family:Sans">
          <path
             sodipodi:nodetypes="ccccccccc"
             inkscape:connector-curvature="0"
             id="path3774"
             style="font-weight:bold;fill:#3c6599;fill-opacity:1"
             d="m 351.8805,913.30761 -4.5e-4,-531.68654 -82.71624,-6.8e-4 0,-87.7556 341.03178,-5e-4 0,87.75636 -153.57363,0 3.3e-4,531.68696 z" />
        </g>
      </g>
      <path
         style="fill:#3c6599;fill-opacity:1;stroke:none"
         d="M 0.00220954,487.38804 C 44.227916,553.57966 132.16079,548.6123 170.73625,485.64018 l 1.39282,-1.98834 -0.48776,-87.03864 c -0.13033,-0.14733 -0.77422,-1.07787 -0.90506,-1.22609 -38.57546,-62.972 -126.508344,-67.93934 -170.73404046,-1.74786 l 7.38867556,2.71209 80.7590359,0 32.663419,44.16231 -32.663419,43.94969 -80.7590359,0 z"
         id="path4027"
         inkscape:connector-curvature="0"
         sodipodi:nodetypes="cccccccccccc" />
      <path
         inkscape:connector-curvature="0"
         style="fill:#cccc99;fill-opacity:1;stroke:none;display:inline"
         d="m 225.8125,487.32125 c -2.38067,3.27678 -4.7985,6.45972 -7.28125,9.53125 -3.15385,3.00758 -5.28986,5.32179 -5.28125,5.34375 0.0262,0.0518 -5.98929,6.19911 -7.625,6.5 -1.57186,0.44281 -7.72707,5.17976 -7.75,5.125 -20.69216,11.55652 -39.79366,21.47338 -52.96875,30.5 -13.29234,8.71136 -20.66395,16.54612 -20.59375,16.75 -24.8617,26.0021 -32.563078,54.17232 -32.78125,77.78125 -0.426806,23.27949 6.777572,42.31471 6.40625,41.46875 0.003,0.0425 10.94004,6.45065 16.34375,5.96875 -12.82838,28.31966 8.47659,81.85698 37.65625,129.84375 28.41467,47.70334 64.73442,89.84854 64.25,88.875 -0.17766,-0.0729 13.38644,-2.73762 19.34375,-21.4375 10.77927,-32.12944 -2.80341,-67.6195 -14.28125,-100.9375 -0.0635,1.6e-4 16.52701,20.3103 19.28125,41.8125 9.06755,-3.93383 -5.22365,-44.59122 -17.46875,-78.96875 -12.93488,-35.22404 -23.80666,-64.19328 -23.875,-64.25 -0.0926,-0.0594 15.03254,21.044 19.9375,38.8125 1.9681,-6.97828 0.39701,-14.03745 -13.46875,-68.6875 -11.73035,-51.52238 -0.14183,-56.73389 -0.53125,-58.53125 0.33767,-0.57925 11.49323,-11.90595 13.71875,-20.375 2.22593,-8.43603 4.24642,-30.57783 4.34375,-30.40625 -13.62432,-5.00064 -8.5655,-20.13837 -9.96875,-20.84375 -1.21611,-0.6831 4.41545,-12.45673 4.40625,-12.46875 0.0252,0.0579 5.83467,-7.52956 7.3125,-11.3125 1.32855,-1.77306 2.71811,-3.69487 4.03125,-5.59375 l 0,-4.5 -3.15625,0 z M 200.375,528.54 c -33.7347,47.09215 -46.81921,89.65667 -42.96875,141.125 2.68454,49.4607 22.33504,107.82516 27.15625,140.125 0.53402,1.68921 -7.24152,-18.25071 -14.78125,-44.625 -7.69706,-26.64478 -15.16316,-59.73611 -17.625,-90.4375 -2.61942,-30.96978 -0.25058,-59.53892 8.15625,-83.46875 8.25016,-24.20057 22.51235,-43.74413 40.0625,-62.71875 z"
         id="rect10492" />
      <g
         transform="translate(1061.4987,-819.91078)"
         id="g3054"
         style="font-size:444px;font-style:normal;font-variant:normal;font-weight:normal;font-stretch:normal;line-height:125%;letter-spacing:0px;word-spacing:0px;fill:#000000;fill-opacity:1;stroke:none;font-family:Athletic;-inkscape-font-specification:Athletic">
        <g
           transform="translate(-216.37468,316.78384)"
           id="g3056" />
      </g>
    </g>
  </g>
  <g
     inkscape:groupmode="layer"
     id="layer3"
     inkscape:label="lighting"
     style="display:none"
     transform="translate(0,-824.00002)">
    <rect
       style="fill:url(#linearGradient4394);fill-opacity:1;stroke:none"
       id="rect4386"
       width="1024"
       height="1024"
       x="0"
       y="0" />
  </g>
</svg>
